<svg width="41" height="36" viewBox="0 0 41 36" fill="none" xmlns="http://www.w3.org/2000/svg">
<path d="M21.792 7.36C20.904 8.056 19.824 9.448 18.552 11.536C17.304 13.6 15.912 16.132 14.376 19.132C12.864 22.132 12.084 23.68 12.036 23.776C11.868 24.064 11.568 24.616 11.136 25.432C10.704 26.248 10.356 26.896 10.092 27.376C9.852 27.832 9.48 28.468 8.976 29.284C8.496 30.076 8.064 30.724 7.68 31.228C7.296 31.732 6.828 32.296 6.276 32.92C5.724 33.52 5.184 33.988 4.656 34.324C4.152 34.684 3.576 34.984 2.928 35.224C2.28 35.464 1.632 35.584 0.984 35.584C0.432 35.584 0.156 35.476 0.156 35.26C0.156 35.188 0.192 35.116 0.264 35.044C0.336 34.972 0.408 34.912 0.48 34.864L0.588 34.828C1.62 34.18 2.892 32.788 4.404 30.652C5.916 28.516 7.176 26.536 8.184 24.712L9.66 22.012C10.764 19.9 11.844 17.968 12.9 16.216C13.98 14.44 14.88 13.06 15.6 12.076C16.344 11.092 16.992 10.264 17.544 9.592C18.12 8.896 18.552 8.428 18.84 8.188L19.236 7.828C19.308 7.756 19.344 7.684 19.344 7.612C19.344 7.396 18.984 7.288 18.264 7.288C17.496 7.288 16.752 7.48 16.032 7.864C15.312 8.248 14.7 8.716 14.196 9.268C13.716 9.82 13.284 10.384 12.9 10.96C12.516 11.512 12.24 11.98 12.072 12.364L11.784 12.94C11.688 13.324 11.556 13.516 11.388 13.516C10.98 13.516 10.776 12.988 10.776 11.932C10.776 10.636 11.196 9.544 12.036 8.656C12.9 7.768 13.92 7.156 15.096 6.82C16.296 6.46 17.592 6.28 18.984 6.28C19.824 6.28 20.748 6.352 21.756 6.496C22.044 6.544 22.188 6.652 22.188 6.82C22.188 6.988 22.056 7.168 21.792 7.36ZM19.5803 30.148C19.7243 30.028 19.9163 29.86 20.1563 29.644C20.4203 29.404 20.9123 28.924 21.6323 28.204C22.3523 27.46 23.0363 26.704 23.6843 25.936C24.3563 25.144 25.0883 24.172 25.8803 23.02C26.6963 21.868 27.3923 20.728 27.9683 19.6C27.9923 19.552 28.0043 19.504 28.0043 19.456L27.9683 19.348C27.8003 19.252 27.6083 19.204 27.3923 19.204C26.3603 19.204 25.0763 19.972 23.5403 21.508C22.0283 23.044 20.7323 24.7 19.6523 26.476C18.5963 28.228 18.0683 29.488 18.0683 30.256C18.0683 30.592 18.2003 30.76 18.4643 30.76C18.7523 30.76 19.1243 30.556 19.5803 30.148ZM27.5363 28.564C28.5443 27.556 29.8763 26.104 31.5323 24.208C31.6043 24.136 31.6643 24.1 31.7123 24.1C31.7603 24.1 31.7843 24.148 31.7843 24.244C31.7843 24.7 31.6043 25.144 31.2443 25.576C29.4683 27.544 27.8963 29.188 26.5283 30.508C23.6963 33.148 21.8363 34.468 20.9483 34.468C20.6123 34.468 20.4443 34.288 20.4443 33.928C20.4443 33.472 20.6723 32.752 21.1283 31.768C21.5843 30.784 22.0523 29.908 22.5323 29.14L23.2163 27.988C23.3123 27.868 23.3603 27.76 23.3603 27.664C23.3603 27.616 23.3363 27.592 23.2883 27.592C23.1923 27.592 23.0603 27.676 22.8923 27.844C22.1483 28.708 21.2963 29.596 20.3363 30.508C19.3763 31.42 18.5963 32.128 17.9963 32.632L17.1323 33.352C16.1723 34.096 15.4523 34.468 14.9723 34.468L14.8283 34.432C14.4203 34.408 14.2163 34.048 14.2163 33.352C14.2163 31.528 14.8523 29.452 16.1243 27.124C17.4203 24.772 19.0883 22.732 21.1283 21.004C23.1683 19.276 25.1363 18.412 27.0323 18.412C27.2243 18.412 27.4043 18.436 27.5723 18.484C27.7403 18.508 27.8603 18.532 27.9323 18.556C28.0283 18.58 28.1123 18.616 28.1843 18.664L28.2923 18.7C28.3403 18.7 28.4003 18.664 28.4723 18.592C32.9123 10.576 36.3203 5.044 38.6963 1.996C39.4163 1.036 39.9323 0.555999 40.2443 0.555999C40.3643 0.555999 40.4243 0.651999 40.4243 0.843998C40.4243 1.348 40.0403 2.38 39.2723 3.94C35.5763 10.708 32.9843 15.4 31.4963 18.016C28.8323 22.768 27.2123 25.624 26.6363 26.584C25.4603 28.6 24.8723 29.824 24.8723 30.256C24.8723 30.424 24.9443 30.508 25.0883 30.508C25.2083 30.508 25.3403 30.472 25.4843 30.4C25.6523 30.304 25.8323 30.172 26.0243 30.004C26.2163 29.836 26.3843 29.68 26.5283 29.536C26.6963 29.392 26.8883 29.212 27.1043 28.996C27.3203 28.78 27.4643 28.636 27.5363 28.564Z" fill="white"/>
</svg>
